<svg width="141" height="47" viewBox="0 0 141 47" fill="none" xmlns="http://www.w3.org/2000/svg">
<path d="M130.174 3.84196C130.171 4.26201 129.839 4.58993 129.419 4.58736L128.669 4.58278L128.655 6.83273C128.653 7.25268 128.321 7.5807 127.901 7.57813C127.481 7.57556 127.153 7.2435 127.155 6.82356L127.169 4.5736L126.419 4.56902C125.999 4.56645 125.671 4.23449 125.674 3.81444C125.676 3.3944 126.008 3.06648 126.428 3.06904L127.178 3.07363L127.192 0.823673C127.195 0.403631 127.526 0.0757048 127.947 0.0782736C128.367 0.0808423 128.695 0.412804 128.692 0.832846L128.678 3.0828L129.428 3.08739C129.848 3.08996 130.176 3.42192 130.174 3.84196Z" fill="#FDBF00"/>
<path d="M127.901 7.57811L127.947 0.0782471C128.367 0.0808158 128.695 0.412777 128.692 0.83282L128.678 3.08278L129.428 3.08736C129.848 3.08993 130.176 3.42189 130.174 3.84194C130.171 4.26198 129.839 4.5899 129.419 4.58734L128.669 4.58275L128.655 6.83271C128.653 7.25265 128.321 7.58068 127.901 7.57811Z" fill="#FF9100"/>
<path d="M131.646 8.35106L131.628 11.336L127.878 11.3431L124.128 11.3351L124.146 8.30519C124.154 7.06017 125.165 6.06138 126.41 6.069L129.41 6.08734C130.655 6.09496 131.654 7.10608 131.646 8.35106Z" fill="#F03800"/>
<path d="M131.628 11.336L127.878 11.3431L127.91 6.07819L129.41 6.08736C130.655 6.09497 131.654 7.10605 131.646 8.35108L131.628 11.336Z" fill="#F03800"/>
<path d="M122.387 20.2947L122.986 12.0833C123.006 11.8168 122.882 11.5605 122.662 11.4097C121.737 10.7778 120.672 10.4402 119.58 10.4335C117.08 10.4183 115.07 12.5462 115.053 15.3835C115.041 17.3768 116.12 18.916 117.331 20.2637L122.387 20.2947Z" fill="#FDBF00"/>
<path d="M118.686 19.522L119.854 20.2792L120.938 19.5358L121.457 12.4277C120.869 12.1033 120.236 11.9376 119.57 11.9335C117.926 11.9235 116.565 13.41 116.553 15.3927C116.545 16.7213 117.21 17.9331 118.686 19.522V19.522Z" fill="#F03800"/>
<path d="M138.351 20.3923C139.579 19.0601 140.64 17.5339 140.652 15.5401C140.67 12.7027 138.723 10.5506 136.224 10.5354C135.133 10.5287 134.065 10.8525 133.134 11.4716C132.94 11.6 132.817 11.8102 132.8 12.0415L132.199 20.3049C132.198 20.322 132.206 20.3377 132.206 20.3547L138.351 20.3923Z" fill="#FF9100"/>
<path d="M133.753 19.6142L135.056 20.3722L137.006 19.6341C138.502 18.0633 139.144 16.8602 139.152 15.5309C139.164 13.5483 137.859 12.0454 136.214 12.0353C135.529 12.0311 134.875 12.1992 134.269 12.5347L133.753 19.6142Z" fill="#F03800"/>
<path d="M136.589 14.4864C136.575 16.7364 135.379 18.4991 133.568 20.363L121.898 20.2917C120.094 18.4056 118.87 16.6281 118.884 14.3781C118.903 11.2732 121.037 8.94619 123.767 8.96289C125.702 8.97472 127.061 9.89805 127.793 10.5325C127.823 10.5027 127.853 10.4879 127.883 10.458C128.622 9.84759 129.977 9.00086 131.837 9.01224C134.567 9.02893 136.608 11.3815 136.589 14.4864V14.4864Z" fill="#FFDA2D"/>
<path d="M133.568 20.363L127.823 20.3279L127.883 10.4581C128.622 9.84764 129.977 9.00091 131.837 9.01228C134.567 9.02898 136.608 11.3815 136.589 14.4864C136.575 16.7364 135.379 18.4991 133.568 20.363V20.363Z" fill="#FDBF00"/>
<path d="M131.828 10.5084C133.703 10.5199 135.106 12.2255 135.092 14.4755C135.081 16.3486 133.98 17.8467 132.203 19.6046L130.354 20.3434L128.577 19.5825L128.625 11.8038C129.095 11.3517 130.2 10.4985 131.828 10.5084Z" fill="#F03800"/>
<path d="M120.438 14.3859C120.452 12.1359 121.876 10.4476 123.751 10.4591C125.681 10.4709 126.855 11.6815 127.124 11.9895L127.077 19.5733L125.104 20.3113L123.264 19.55C121.509 17.7706 120.427 16.2591 120.438 14.3859V14.3859Z" fill="#FF641A"/>
<path d="M116.523 20.2588L139.122 20.397L139.104 23.3969L116.505 23.2587L116.523 20.2588Z" fill="#FDBF00"/>
<path d="M127.823 20.3279L139.122 20.397L139.104 23.3969L127.804 23.3278L127.823 20.3279Z" fill="#FF9100"/>
<path d="M140.622 20.4062C140.62 20.8261 140.288 21.1541 139.868 21.1516L115.768 21.0042C115.348 21.0016 115.02 20.6696 115.023 20.2496C115.026 19.8296 115.357 19.5017 115.778 19.5042L139.877 19.6516C140.297 19.6542 140.625 19.9861 140.622 20.4062Z" fill="#FFDA2D"/>
<path d="M140.604 23.4061C140.602 23.8261 140.27 24.1541 139.85 24.1515L115.75 24.0041C115.33 24.0016 115.002 23.6695 115.005 23.2496C115.007 22.8295 115.339 22.5016 115.759 22.5042L139.859 22.6515C140.279 22.6541 140.607 22.9861 140.604 23.4061Z" fill="#FFDA2D"/>
<path d="M140.604 23.4061C140.602 23.8261 140.27 24.1541 139.85 24.1515L127.8 24.0779L127.809 22.5779L139.859 22.6516C140.279 22.6541 140.607 22.9861 140.604 23.4061Z" fill="#FDBF00"/>
<path d="M140.622 20.4062C140.62 20.8261 140.288 21.1542 139.868 21.1516L127.818 21.0779L127.827 19.5779L139.877 19.6516C140.297 19.6542 140.625 19.9862 140.622 20.4062Z" fill="#FDBF00"/>
<path d="M127.864 13.578C126.619 13.5704 125.608 14.5692 125.6 15.8142C125.593 17.0592 126.591 18.0703 127.836 18.0779C129.081 18.0856 130.093 17.0867 130.1 15.8417C130.108 14.5968 129.109 13.5856 127.864 13.578Z" fill="#FDBF00"/>
<path d="M130.1 15.8417C130.093 17.0866 129.081 18.0855 127.836 18.0779L127.864 13.578C129.109 13.5856 130.108 14.5967 130.1 15.8417Z" fill="#FF9100"/>
<path d="M0.0540009 21.592H6.242C7.126 21.592 7.97533 21.6787 8.79 21.852C9.622 22.0253 10.35 22.32 10.974 22.736C11.598 23.1347 12.092 23.6807 12.456 24.374C12.8373 25.05 13.028 25.8993 13.028 26.922C13.028 28.0833 12.8287 29.0193 12.43 29.73C12.0313 30.4407 11.494 30.9953 10.818 31.394C10.142 31.7753 9.35333 32.0353 8.452 32.174C7.568 32.3127 6.64067 32.382 5.67 32.382H3.33V40H0.0540009V21.592ZM5.306 29.574C5.774 29.574 6.25933 29.5567 6.762 29.522C7.26467 29.4873 7.724 29.3833 8.14 29.21C8.57333 29.0367 8.92 28.7767 9.18 28.43C9.45733 28.0833 9.596 27.598 9.596 26.974C9.596 26.402 9.47467 25.9513 9.232 25.622C8.98933 25.2753 8.67733 25.0153 8.296 24.842C7.91467 24.6513 7.49 24.53 7.022 24.478C6.554 24.426 6.10333 24.4 5.67 24.4H3.33V29.574H5.306Z" fill="#3D3D3D"/>
<path d="M23.4625 38.284H23.3845C22.9339 38.9947 22.3619 39.5147 21.6685 39.844C20.9752 40.156 20.2125 40.312 19.3805 40.312C18.8085 40.312 18.2452 40.234 17.6905 40.078C17.1532 39.922 16.6679 39.688 16.2345 39.376C15.8185 39.064 15.4805 38.674 15.2205 38.206C14.9605 37.738 14.8305 37.192 14.8305 36.568C14.8305 35.892 14.9519 35.32 15.1945 34.852C15.4372 34.3667 15.7579 33.968 16.1565 33.656C16.5725 33.3267 17.0492 33.0667 17.5865 32.876C18.1239 32.6853 18.6785 32.5467 19.2505 32.46C19.8399 32.356 20.4292 32.2953 21.0185 32.278C21.6079 32.2433 22.1625 32.226 22.6825 32.226H23.4625V31.888C23.4625 31.108 23.1939 30.5273 22.6565 30.146C22.1192 29.7473 21.4345 29.548 20.6025 29.548C19.9439 29.548 19.3285 29.6693 18.7565 29.912C18.1845 30.1373 17.6905 30.4493 17.2745 30.848L15.6365 29.21C16.3299 28.4993 17.1359 27.988 18.0545 27.676C18.9905 27.364 19.9525 27.208 20.9405 27.208C21.8245 27.208 22.5699 27.312 23.1765 27.52C23.7832 27.7107 24.2859 27.962 24.6845 28.274C25.0832 28.586 25.3865 28.95 25.5945 29.366C25.8199 29.7647 25.9759 30.172 26.0625 30.588C26.1665 31.004 26.2272 31.4113 26.2445 31.81C26.2619 32.1913 26.2705 32.5293 26.2705 32.824V40H23.4625V38.284ZM23.2805 34.41H22.6305C22.1972 34.41 21.7119 34.4273 21.1745 34.462C20.6372 34.4967 20.1259 34.5833 19.6405 34.722C19.1725 34.8433 18.7739 35.034 18.4445 35.294C18.1152 35.5367 17.9505 35.8833 17.9505 36.334C17.9505 36.6287 18.0112 36.88 18.1325 37.088C18.2712 37.2787 18.4445 37.4433 18.6525 37.582C18.8605 37.7207 19.0945 37.8247 19.3545 37.894C19.6145 37.946 19.8745 37.972 20.1345 37.972C21.2092 37.972 21.9979 37.7207 22.5005 37.218C23.0205 36.698 23.2805 35.996 23.2805 35.112V34.41Z" fill="#3D3D3D"/>
<path d="M29.6794 20.344H32.7994V40H29.6794V20.344Z" fill="#3D3D3D"/>
<path d="M38.8773 34.852C38.9813 35.788 39.3453 36.516 39.9693 37.036C40.5933 37.556 41.3473 37.816 42.2313 37.816C43.0113 37.816 43.6613 37.66 44.1813 37.348C44.7186 37.0187 45.1866 36.6113 45.5853 36.126L47.8213 37.816C47.0933 38.7173 46.2786 39.3587 45.3773 39.74C44.4759 40.1213 43.5313 40.312 42.5433 40.312C41.6073 40.312 40.7233 40.156 39.8913 39.844C39.0593 39.532 38.34 39.09 37.7333 38.518C37.1266 37.946 36.6413 37.2613 36.2773 36.464C35.9306 35.6493 35.7573 34.748 35.7573 33.76C35.7573 32.772 35.9306 31.8793 36.2773 31.082C36.6413 30.2673 37.1266 29.574 37.7333 29.002C38.34 28.43 39.0593 27.988 39.8913 27.676C40.7233 27.364 41.6073 27.208 42.5433 27.208C43.4099 27.208 44.1986 27.364 44.9093 27.676C45.6373 27.9707 46.2526 28.404 46.7553 28.976C47.2753 29.548 47.6739 30.2587 47.9513 31.108C48.2459 31.94 48.3933 32.902 48.3933 33.994V34.852H38.8773ZM45.2733 32.512C45.2559 31.5933 44.9699 30.874 44.4153 30.354C43.8606 29.8167 43.0893 29.548 42.1013 29.548C41.1653 29.548 40.42 29.8167 39.8653 30.354C39.328 30.8913 38.9986 31.6107 38.8773 32.512H45.2733Z" fill="#3D3D3D"/>
<path d="M49.855 30.172V27.52H52.429V23.906H55.549V27.52H58.981V30.172H55.549V35.632C55.549 36.256 55.6616 36.75 55.887 37.114C56.1296 37.478 56.5976 37.66 57.291 37.66C57.5683 37.66 57.8716 37.634 58.201 37.582C58.5303 37.5127 58.7903 37.4087 58.981 37.27V39.896C58.6516 40.052 58.2443 40.156 57.759 40.208C57.291 40.2773 56.875 40.312 56.511 40.312C55.679 40.312 54.9943 40.2167 54.457 40.026C53.937 39.8527 53.521 39.584 53.209 39.22C52.9143 38.8387 52.7063 38.3707 52.585 37.816C52.481 37.2613 52.429 36.62 52.429 35.892V30.172H49.855Z" fill="#3D3D3D"/>
<path d="M59.9858 30.172V27.52H62.5598V23.906H65.6798V27.52H69.1118V30.172H65.6798V35.632C65.6798 36.256 65.7925 36.75 66.0178 37.114C66.2605 37.478 66.7285 37.66 67.4218 37.66C67.6992 37.66 68.0025 37.634 68.3318 37.582C68.6612 37.5127 68.9212 37.4087 69.1118 37.27V39.896C68.7825 40.052 68.3752 40.156 67.8898 40.208C67.4218 40.2773 67.0058 40.312 66.6418 40.312C65.8098 40.312 65.1252 40.2167 64.5878 40.026C64.0678 39.8527 63.6518 39.584 63.3398 39.22C63.0452 38.8387 62.8372 38.3707 62.7158 37.816C62.6118 37.2613 62.5598 36.62 62.5598 35.892V30.172H59.9858Z" fill="#3D3D3D"/>
<path d="M74.0433 34.852C74.1473 35.788 74.5113 36.516 75.1353 37.036C75.7593 37.556 76.5133 37.816 77.3973 37.816C78.1773 37.816 78.8273 37.66 79.3473 37.348C79.8846 37.0187 80.3526 36.6113 80.7513 36.126L82.9873 37.816C82.2593 38.7173 81.4446 39.3587 80.5433 39.74C79.642 40.1213 78.6973 40.312 77.7093 40.312C76.7733 40.312 75.8893 40.156 75.0573 39.844C74.2253 39.532 73.506 39.09 72.8993 38.518C72.2926 37.946 71.8073 37.2613 71.4433 36.464C71.0966 35.6493 70.9233 34.748 70.9233 33.76C70.9233 32.772 71.0966 31.8793 71.4433 31.082C71.8073 30.2673 72.2926 29.574 72.8993 29.002C73.506 28.43 74.2253 27.988 75.0573 27.676C75.8893 27.364 76.7733 27.208 77.7093 27.208C78.576 27.208 79.3646 27.364 80.0753 27.676C80.8033 27.9707 81.4186 28.404 81.9213 28.976C82.4413 29.548 82.84 30.2587 83.1173 31.108C83.412 31.94 83.5593 32.902 83.5593 33.994V34.852H74.0433ZM80.4393 32.512C80.422 31.5933 80.136 30.874 79.5813 30.354C79.0266 29.8167 78.2553 29.548 77.2673 29.548C76.3313 29.548 75.586 29.8167 75.0313 30.354C74.494 30.8913 74.1646 31.6107 74.0433 32.512H80.4393Z" fill="#3D3D3D"/>
<path d="M86.763 21.592H90.039V29.392H90.195L97.813 21.592H102.233L93.627 30.094L102.805 40H98.203L90.221 30.952H90.039V40H86.763V21.592Z" fill="#3D3D3D"/>
<path d="M104.328 27.52H107.448V40H104.328V27.52ZM103.886 23.282C103.886 22.7793 104.068 22.346 104.432 21.982C104.813 21.6007 105.29 21.41 105.862 21.41C106.434 21.41 106.91 21.592 107.292 21.956C107.69 22.3027 107.89 22.7447 107.89 23.282C107.89 23.8193 107.69 24.27 107.292 24.634C106.91 24.9807 106.434 25.154 105.862 25.154C105.29 25.154 104.813 24.972 104.432 24.608C104.068 24.2267 103.886 23.7847 103.886 23.282Z" fill="#3D3D3D"/>
<path d="M111.03 27.52H113.994V29.522H114.046C114.34 28.898 114.791 28.3607 115.398 27.91C116.004 27.442 116.828 27.208 117.868 27.208C118.7 27.208 119.402 27.3467 119.974 27.624C120.563 27.9013 121.04 28.2653 121.404 28.716C121.768 29.1667 122.028 29.6867 122.184 30.276C122.34 30.8653 122.418 31.4807 122.418 32.122V40H119.298V33.682C119.298 33.3353 119.28 32.954 119.246 32.538C119.211 32.1047 119.116 31.706 118.96 31.342C118.821 30.9607 118.596 30.6487 118.284 30.406C117.972 30.146 117.547 30.016 117.01 30.016C116.49 30.016 116.048 30.1027 115.684 30.276C115.337 30.4493 115.042 30.6833 114.8 30.978C114.574 31.2727 114.41 31.6107 114.306 31.992C114.202 32.3733 114.15 32.772 114.15 33.188V40H111.03V27.52Z" fill="#3D3D3D"/>
<path d="M138.803 27.52V38.882C138.803 40.0087 138.665 41.0227 138.387 41.924C138.11 42.8427 137.677 43.614 137.087 44.238C136.515 44.8793 135.787 45.3733 134.903 45.72C134.019 46.0667 132.971 46.24 131.757 46.24C130.596 46.24 129.495 46.0927 128.455 45.798C127.415 45.5033 126.453 44.966 125.569 44.186L127.441 41.638C128.065 42.21 128.715 42.652 129.391 42.964C130.067 43.276 130.847 43.432 131.731 43.432C132.477 43.432 133.101 43.328 133.603 43.12C134.123 42.912 134.531 42.626 134.825 42.262C135.137 41.898 135.354 41.456 135.475 40.936C135.614 40.4333 135.683 39.87 135.683 39.246V38.336H135.631C135.181 38.9427 134.583 39.402 133.837 39.714C133.092 40.0087 132.329 40.156 131.549 40.156C130.613 40.156 129.764 39.9913 129.001 39.662C128.239 39.3153 127.58 38.856 127.025 38.284C126.488 37.712 126.072 37.036 125.777 36.256C125.483 35.476 125.335 34.644 125.335 33.76C125.335 32.8413 125.474 31.9833 125.751 31.186C126.029 30.3887 126.436 29.6953 126.973 29.106C127.511 28.5167 128.152 28.0573 128.897 27.728C129.66 27.3813 130.527 27.208 131.497 27.208C132.381 27.208 133.205 27.3813 133.967 27.728C134.73 28.0747 135.337 28.6293 135.787 29.392H135.839V27.52H138.803ZM132.147 30.016C131.593 30.016 131.09 30.1113 130.639 30.302C130.189 30.4753 129.799 30.7267 129.469 31.056C129.157 31.368 128.906 31.758 128.715 32.226C128.542 32.6767 128.455 33.1793 128.455 33.734C128.455 34.2367 128.542 34.7047 128.715 35.138C128.906 35.5713 129.166 35.9527 129.495 36.282C129.825 36.6113 130.215 36.8713 130.665 37.062C131.116 37.2527 131.601 37.348 132.121 37.348C132.693 37.348 133.205 37.2527 133.655 37.062C134.123 36.8713 134.513 36.62 134.825 36.308C135.155 35.9787 135.406 35.5887 135.579 35.138C135.753 34.6873 135.839 34.202 135.839 33.682C135.839 32.59 135.51 31.706 134.851 31.03C134.193 30.354 133.291 30.016 132.147 30.016Z" fill="#3D3D3D"/>
</svg>
